<svg id="Layer_1" data-name="Layer 1" xmlns="http://www.w3.org/2000/svg" viewBox="0 0 550.47 235.96"><defs><style>.cls-1{fill:#568730;}.cls-2{fill:#7cbb4b;}</style></defs><rect class="cls-1" y="98.52" width="31.2" height="80.47"/><polygon class="cls-1" points="50.09 65.67 50.09 211.83 103.46 211.83 103.46 112.48 103.46 65.67 50.09 65.67"/><polygon class="cls-2" points="148.62 114.12 103.46 114.12 103.46 163.38 181.46 163.38 148.62 114.12"/><rect class="cls-1" x="519.27" y="98.52" width="31.2" height="80.47"/><polygon class="cls-1" points="500.39 65.67 500.39 211.83 447.02 211.83 447.02 112.48 447.02 65.67 500.39 65.67"/><polygon class="cls-2" points="401.86 114.12 447.02 114.12 447.02 163.38 369.01 163.38 401.86 114.12"/><path class="cls-2" d="M1014.43,406.17c-35.81,35.81-98.68,31-98.68,31s-4.81-62.88,31-98.69c40.58-40.58,98.69-31,98.69-31S1056,364.66,1014.43,406.17Z" transform="translate(-637.68 -213.76)"/><path class="cls-1" d="M946.75,338.49c-35.81,35.81-31,98.69-31,98.69l129.69-129.69S987.33,297.91,946.75,338.49Z" transform="translate(-637.68 -213.76)"/><path class="cls-2" d="M884.21,338.69c35.81,35.82,31,98.69,31,98.69s-62.87,4.81-98.68-31c-40.58-40.57-31-98.68-31-98.68S842.69,297.18,884.21,338.69Z" transform="translate(-637.68 -213.76)"/><path class="cls-1" d="M816.53,406.37c35.81,35.82,98.68,31,98.68,31L785.52,307.69S776,365.8,816.53,406.37Z" transform="translate(-637.68 -213.76)"/><path class="cls-2" d="M975.82,331.74c0,65.16-61.57,118-61.57,118s-61.56-52.82-61.56-118c0-73.82,61.56-118,61.56-118S975.82,256.21,975.82,331.74Z" transform="translate(-637.68 -213.76)"/><path class="cls-1" d="M852.69,331.74c0,65.16,61.56,118,61.56,118v-236S852.69,257.92,852.69,331.74Z" transform="translate(-637.68 -213.76)"/></svg>